<?xml version="1.0" encoding="utf-8"?>
<!-- Generator: Adobe Illustrator 22.0.1, SVG Export Plug-In . SVG Version: 6.00 Build 0)  -->
<svg version="1.1" id="Layer_1" xmlns="http://www.w3.org/2000/svg" xmlns:xlink="http://www.w3.org/1999/xlink" x="0px" y="0px"
	 viewBox="0 0 30 30" style="enable-background:new 0 0 30 30;" xml:space="preserve">
<style type="text/css">
	.st0{fill:#CCB089;}
</style>
<path class="st0" d="M29,29.5c-0.1,0-0.3,0-0.4-0.1l-28-28c-0.2-0.2-0.2-0.5,0-0.7s0.5-0.2,0.7,0l28,28c0.2,0.2,0.2,0.5,0,0.7
	C29.3,29.5,29.1,29.5,29,29.5z"/>
<path class="st0" d="M1,29.5c-0.1,0-0.3,0-0.4-0.1c-0.2-0.2-0.2-0.5,0-0.7l28-28c0.2-0.2,0.5-0.2,0.7,0s0.2,0.5,0,0.7l-28,28
	C1.3,29.5,1.1,29.5,1,29.5z"/>
</svg>
